<svg width="158" height="60" viewBox="0 0 158 60" fill="none" xmlns="http://www.w3.org/2000/svg">
<g opacity="0.7">
<path d="M46.1926 39.8777H115.776L123.968 32.1052H133.909" stroke="#A6A6A6" stroke-width="6" stroke-linejoin="round"/>
</g>
<path d="M43.4833 39.6698V24.1627C43.4833 18.1058 38.5834 13.1864 32.5294 13.1864H20.516C14.4714 13.1864 9.44849 17.9257 9.44849 23.9826V39.8594C9.44849 45.9163 14.443 50.6366 20.4876 50.6366H32.5294H76.8844C80.1857 50.6366 82.8627 47.9542 82.8627 44.6461V37.8878C82.8627 34.5798 80.1857 31.8973 76.8844 31.8973H59.2237C55.9224 31.8973 53.2454 29.2148 53.2454 25.9068V19.1485C53.2454 15.8404 55.9224 13.158 59.2237 13.158H95.5383C96.0869 13.158 96.5315 13.6035 96.5315 14.1532V47.6129C96.5315 49.2622 97.8653 50.6082 99.5207 50.6082H102.406C104.052 50.6082 105.395 49.2717 105.395 47.6129V14.1911C105.395 13.6414 105.84 13.1959 106.388 13.1959H150.28" stroke="white" stroke-width="6" stroke-linejoin="round"/>
<path d="M136.479 32.1052H149.305" stroke="#FCF8F8" stroke-width="6" stroke-miterlimit="10"/>
<path d="M133.065 35.781C135.238 35.781 137 34.0156 137 31.8379C137 29.6602 135.238 27.8948 133.065 27.8948C130.891 27.8948 129.13 29.6602 129.13 31.8379C129.13 34.0156 130.891 35.781 133.065 35.781Z" fill="black" stroke="#FCF8F8" stroke-width="4" stroke-miterlimit="10"/>
<path d="M43.8289 43.6758C46.0022 43.6758 47.764 41.9104 47.764 39.7327C47.764 37.5549 46.0022 35.7896 43.8289 35.7896C41.6556 35.7896 39.8938 37.5549 39.8938 39.7327C39.8938 41.9104 41.6556 43.6758 43.8289 43.6758Z" fill="#1B031A"/>
<path d="M43.8289 43.6758C46.0022 43.6758 47.764 41.9104 47.764 39.7327C47.764 37.5549 46.0022 35.7896 43.8289 35.7896C41.6556 35.7896 39.8938 37.5549 39.8938 39.7327C39.8938 41.9104 41.6556 43.6758 43.8289 43.6758Z" stroke="#665F63" stroke-width="4" stroke-miterlimit="10"/>
<path d="M43.8289 43.6758C46.0022 43.6758 47.764 41.9104 47.764 39.7327C47.764 37.5549 46.0022 35.7896 43.8289 35.7896C41.6556 35.7896 39.8938 37.5549 39.8938 39.7327C39.8938 41.9104 41.6556 43.6758 43.8289 43.6758Z" stroke="black" stroke-opacity="0.2" stroke-width="4" stroke-miterlimit="10"/>
<path d="M43.8289 43.6758C46.0022 43.6758 47.764 41.9104 47.764 39.7327C47.764 37.5549 46.0022 35.7896 43.8289 35.7896C41.6556 35.7896 39.8938 37.5549 39.8938 39.7327C39.8938 41.9104 41.6556 43.6758 43.8289 43.6758Z" fill="#1B031A" stroke="#FCF8F8" stroke-width="4" stroke-miterlimit="10"/>
</svg>
